<svg xmlns="http://www.w3.org/2000/svg" version="1.1" xmlns:xlink="http://www.w3.org/1999/xlink" xmlns:svgjs="http://svgjs.dev/svgjs" width="128" height="128" viewBox="0 0 128 128"><g transform="matrix(0.8046875,0,0,0.8046875,12.411840748212605,12.814873242367192)"><svg viewBox="0 0 98 98" data-background-color="#ffffff" preserveAspectRatio="xMidYMid meet" height="127" width="128" xmlns="http://www.w3.org/2000/svg" xmlns:xlink="http://www.w3.org/1999/xlink"><g id="tight-bounds" transform="matrix(1,0,0,1,0.0838796764579115,0.0838796764579115)"><svg viewBox="0 0 97.83224064708416 97.83224064708416" height="97.83224064708416" width="97.83224064708416"><g><svg></svg></g><g><svg viewBox="0 0 97.83224064708416 97.83224064708416" height="97.83224064708416" width="97.83224064708416"><g><path d="M0 48.916c0-27.016 21.9-48.916 48.916-48.916 27.016 0 48.916 21.9 48.916 48.916 0 27.016-21.9 48.916-48.916 48.916-27.016 0-48.916-21.9-48.916-48.916zM48.916 93.244c24.481 0 44.328-19.846 44.328-44.328 0-24.481-19.846-44.328-44.328-44.327-24.481 0-44.328 19.846-44.327 44.327 0 24.481 19.846 44.328 44.327 44.328z" data-fill-palette-color="tertiary" fill="#42a054" stroke="transparent"></path><ellipse rx="46.9594755106004" ry="46.9594755106004" cx="48.91612032354208" cy="48.91612032354208" fill="#42a054" stroke="transparent" stroke-width="0" fill-opacity="1" data-fill-palette-color="tertiary"></ellipse></g><g transform="matrix(1,0,0,1,23.475393915029343,23.475393915029343)"><svg viewBox="0 0 50.881452817025476 50.881452817025476" height="50.881452817025476" width="50.881452817025476"><g><svg viewBox="0 0 50.881452817025476 50.881452817025476" height="50.881452817025476" width="50.881452817025476"><g><svg viewBox="0 0 50.881452817025476 50.881452817025476" height="50.881452817025476" width="50.881452817025476"><g id="textblocktransform"><svg viewBox="0 0 50.881452817025476 50.881452817025476" height="50.881452817025476" width="50.881452817025476" id="textblock"><g><svg viewBox="0 0 50.881452817025476 50.881452817025476" height="50.881452817025476" width="50.881452817025476"><g><svg viewBox="0 0 50.881452817025476 50.881452817025476" height="50.881452817025476" width="50.881452817025476"><g><svg xmlns="http://www.w3.org/2000/svg" xmlns:xlink="http://www.w3.org/1999/xlink" version="1.1" x="0" y="0" viewBox="0 0 100 100" style="enable-background:new 0 0 100 100;" xml:space="preserve" height="50.881452817025476" width="50.881452817025476" class="icon-icon-0" data-fill-palette-color="quaternary" id="icon-0"><g fill="#ffffff" data-fill-palette-color="quaternary"><path d="M74.988 37.5c0 13.807-11.182 25-24.988 25C50 55.604 44.396 50 37.5 50H24.988C12.5 50 0 42.969 0 25 0 6.641 12.5 0 24.988 0H50c12.5 0 24.988 7.745 24.988 25V37.5z" fill="#ffffff" data-fill-palette-color="quaternary"></path></g><path d="M37.5 37.5" fill="#ffffff" data-fill-palette-color="quaternary"></path><path d="M37.5 37.5" fill="#ffffff" data-fill-palette-color="quaternary"></path><g fill="#ffffff" data-fill-palette-color="quaternary"><g fill="#ffffff" data-fill-palette-color="quaternary"><path d="M81.189 38.165C80.822 55.078 66.992 68.75 50 68.75h-6.25V62.5c0-3.448-2.808-6.25-6.25-6.25H25.623c-0.391 1.935-0.635 4.004-0.635 6.25V75c0 13.807 11.205 25 25.012 25 0-6.909 5.604-12.5 12.5-12.5h12.488C87.5 87.5 100 80.469 100 62.5 100 47.211 91.297 40.125 81.189 38.165z" fill="#ffffff" data-fill-palette-color="quaternary"></path></g></g></svg></g></svg></g></svg></g></svg></g></svg></g><g></g></svg></g></svg></g></svg></g><defs></defs></svg><rect width="97.83224064708416" height="97.83224064708416" fill="none" stroke="none" visibility="hidden"></rect></g></svg></g></svg>